<?xml version="1.0" standalone="no"?>
<!DOCTYPE svg PUBLIC "-//W3C//DTD SVG 20010904//EN"
 "http://www.w3.org/TR/2001/REC-SVG-20010904/DTD/svg10.dtd">
<svg version="1.0" xmlns="http://www.w3.org/2000/svg"
 width="500.000000pt" height="500.000000pt" viewBox="0 0 500.000000 500.000000"
 preserveAspectRatio="xMidYMid meet">
<metadata>
Created by potrace 1.11, written by Peter Selinger 2001-2013
</metadata>
<g transform="translate(0.000000,500.000000) scale(0.100000,-0.100000)"
fill="#000000" stroke="none">
<path d="M1675 3974 c-38 -8 -113 -35 -165 -61 -77 -38 -109 -61 -176 -127
-66 -67 -89 -99 -127 -176 -81 -166 -77 -83 -77 -1545 0 -1462 -4 -1379 77
-1545 38 -77 61 -109 127 -176 67 -66 99 -89 176 -127 165 -81 96 -77 1430
-77 1334 0 1265 -4 1430 77 77 38 109 61 176 127 66 67 89 99 127 176 81 166
77 83 77 1545 0 1462 4 1379 -77 1545 -38 77 -61 109 -127 176 -67 66 -99 89
-176 127 -165 81 -95 77 -1437 76 -993 0 -1199 -3 -1258 -15z"/>
</g>
</svg>
